/* XPM */
static char *_bca1bbc7e8242aaa7d520ff95e59354DzbyIhMZ9tDFFtRD[] = {
/* columns rows colors chars-per-pixel */
"64 64 7 1 ",
"  c #393457",
". c #F99252",
"X c #F7E476",
"o c #503197",
"O c #E17CB7",
"+ c #BF53C9",
"@ c #EFAAA5",
/* pixels */
"++++++++++++++++++++++++++++++++++++++++++++++++++++++++++++oooo",
"++++++++++++++++++++++++++++++++++++++++++++++++++++++++++++oooo",
"++++++++++++++++++++++++++++++++++++++++++++++++++++++++++++oooo",
"++++++++++++++++++++++++++++++++++++++++++++++++++++++++++++oooo",
"++++@@@@++++OOOOOOOOOOOOOOOOOOOOOOOOOOOOOOOOOOOO@@@@++++@@@@oooo",
"++++@@@@++++OOOOOOOOOOOOOOOOOOOOOOOOOOOOOOOOOOOO@@@@++++@@@@oooo",
"++++@@@@++++OOOOOOOOOOOOOOOOOOOOOOOOOOOOOOOOOOOO@@@@++++@@@@oooo",
"++++@@@@++++OOOOOOOOOOOOOOOOOOOOOOOOOOOOOOOOOOOO@@@@++++@@@@oooo",
"++++++++++++OOOOO                          OOOOO++++++++@@@@oooo",
"++++++++++++OOOOO                          OOOOO++++++++@@@@oooo",
"++++++++++++OOOOO                          OOOOO++++++++@@@@oooo",
"++++++++++++OOOOO                          OOOOO++++++++@@@@oooo",
"++++OOOOOOOOOOOOO                          OOOOOOOOOOOOO@@@@oooo",
"++++OOOOOOOOO    XXXXXXXXXXXXXXXXXXXXXXXXXX    OOOOOOOOO@@@@oooo",
"++++OOOOOOOOO    XXXXXXXXXXXXXXXXXXXXXXXXXX    OOOOOOOOO@@@@oooo",
"++++OOOOOOOOO    XXXXXXXXXXXXXXXXXXXXXXXXXX    OOOOOOOOO@@@@oooo",
"++++OOOOOOOOO    XXXXXXXXXXXXXXXXXXXXXXXXXX    OOOOOOOOO@@@@oooo",
"++++OOOO     XXXXXXXXX................XXXXXXXXX     OOOO@@@@oooo",
"++++OOOO     XXXXXXXXX................XXXXXXXXX     OOOO@@@@oooo",
"++++OOOO     XXXXXXXXX................XXXXXXXXX     OOOO@@@@oooo",
"++++OOOO     XXXXXXXXX................XXXXXXXXX     OOOO@@@@oooo",
"++++OOOO     XXXXXXXXX................XXXXXXXXX     OOOO@@@@oooo",
"++++OOOO     XXXX.....XXXXXXXXXXXXXXXX.....XXXX     OOOO@@@@oooo",
"++++OOOO     XXXX.....XXXXXXXXXXXXXXXX.....XXXX     OOOO@@@@oooo",
"++++OOOO     XXXX.....XXXXXXXXXXXXXXXX.....XXXX     OOOO@@@@oooo",
"++++OOOO     XXXX.....XXXXXXXXXXXXXXXX.....XXXX     OOOO@@@@oooo",
"++++OOOO     XXXX.....XXXXXXXXXXXXXXXX.....XXXX     OOOO@@@@oooo",
"++++OOOO     XXXX.....XXXXXXXXXXXXXXXX.....XXXX     OOOO@@@@oooo",
"++++OOOO     XXXX.....XXXXXXXXXXXXXXXX.....XXXX     OOOO@@@@oooo",
"++++OOOO     XXXX.....XXXXXXXXXXXXXXXX.....XXXX     OOOO@@@@oooo",
"++++OOOO     XXXX.....XXXXXXXXXXXXXXXX.....XXXX     OOOO@@@@oooo",
"++++OOOO     XXXX.....XXXXXXXXXXXXXXXX.....XXXX     OOOO@@@@oooo",
"++++OOOO     XXXX.....XXXXXXXXXXXXXXXX.....XXXX     OOOO@@@@oooo",
"++++OOOO     XXXX.....XXXXXXXXXXXXXXXX.....XXXX     OOOO@@@@oooo",
"++++OOOO     XXXX.....XXXXXXXXXXXXXXXX.....XXXX     OOOO@@@@oooo",
"++++OOOO     XXXX.....XXXXXXXXXXXXXXXX.....XXXX     OOOO@@@@oooo",
"++++OOOO     XXXX.....XXXXXXXXXXXXXXXX.....XXXX     OOOO@@@@oooo",
"++++OOOO     XXXX.....XXXXXXXXXXXXXXXX.....XXXX     OOOO@@@@oooo",
"++++OOOO     XXXXXXXXX................XXXXXXXXX     OOOO@@@@oooo",
"++++OOOO     XXXXXXXXX................XXXXXXXXX     OOOO@@@@oooo",
"++++OOOO     XXXXXXXXX................XXXXXXXXX     OOOO@@@@oooo",
"++++OOOO     XXXXXXXXX................XXXXXXXXX     OOOO@@@@oooo",
"++++OOOO     XXXXXXXXX................XXXXXXXXX     OOOO@@@@oooo",
"++++OOOOOOOOO    XXXXXXXXXXXXXXXXXXXXXXXXXX    OOOOOOOOO@@@@oooo",
"++++OOOOOOOOO    XXXXXXXXXXXXXXXXXXXXXXXXXX    OOOOOOOOO@@@@oooo",
"++++OOOOOOOOO    XXXXXXXXXXXXXXXXXXXXXXXXXX    OOOOOOOOO@@@@oooo",
"++++OOOOOOOOO    XXXXXXXXXXXXXXXXXXXXXXXXXX    OOOOOOOOO@@@@oooo",
"++++OOOOOOOOOOOOO                          OOOOOOOOOOOOO@@@@oooo",
"++++@@@@++++OOOOO                          OOOOO@@@@++++@@@@oooo",
"++++@@@@++++OOOOO                          OOOOO@@@@++++@@@@oooo",
"++++@@@@++++OOOOO                          OOOOO@@@@++++@@@@oooo",
"++++@@@@++++OOOOO                          OOOOO@@@@++++@@@@oooo",
"++++++++++++OOOOOOOOOOOOOOOOOOOOOOOOOOOOOOOOOOOO++++++++@@@@oooo",
"++++++++++++OOOOOOOOOOOOOOOOOOOOOOOOOOOOOOOOOOOO++++++++@@@@oooo",
"++++++++++++OOOOOOOOOOOOOOOOOOOOOOOOOOOOOOOOOOOO++++++++@@@@oooo",
"++++++++++++OOOOOOOOOOOOOOOOOOOOOOOOOOOOOOOOOOOO++++++++@@@@oooo",
"@@@@@@@@@@@@@@@@@@@@@@@@@@@@@@@@@@@@@@@@@@@@@@@@@@@@@@@@@@@@oooo",
"@@@@@@@@@@@@@@@@@@@@@@@@@@@@@@@@@@@@@@@@@@@@@@@@@@@@@@@@@@@@oooo",
"@@@@@@@@@@@@@@@@@@@@@@@@@@@@@@@@@@@@@@@@@@@@@@@@@@@@@@@@@@@@oooo",
"@@@@@@@@@@@@@@@@@@@@@@@@@@@@@@@@@@@@@@@@@@@@@@@@@@@@@@@@@@@@oooo",
"oooooooooooooooooooooooooooooooooooooooooooooooooooooooooooooooo",
"oooooooooooooooooooooooooooooooooooooooooooooooooooooooooooooooo",
"oooooooooooooooooooooooooooooooooooooooooooooooooooooooooooooooo",
"oooooooooooooooooooooooooooooooooooooooooooooooooooooooooooooooo"
};
