/* XPM */
static char *_875ffef7b78428685faaceb4a064d57zXYSHZhSza9tDEdi[] = {
/* columns rows colors chars-per-pixel */
"64 64 26 1 ",
"  c black",
". c #151615",
"X c #250D1B",
"o c #2B2D2B",
"O c #4C1437",
"+ c #4A1A36",
"@ c #4A143B",
"# c #4C1B38",
"$ c #4C3325",
"% c #631B4F",
"& c #5D2044",
"* c #66244B",
"= c #942240",
"- c #993570",
"; c #C62E55",
": c #E59A72",
"> c #503197",
", c #AC2F8A",
"< c #CC3695",
"1 c #CC4796",
"2 c #FF59BB",
"3 c #E17CB7",
"4 c #BF53C9",
"5 c #F743C6",
"6 c #FFBD99",
"7 c #EFAAA5",
/* pixels */
"444444444444444444444444444444444444444444444444444444444444>>>>",
"444444444444444444444444444444444444444444444444444444444444>>>>",
"444444444444444444444444444444444444444444444444444444444444>>>>",
"444444444444444444444444444444444444444444444444444444444444>>>>",
"444477774444333333333333333333333333333333333333777744447777>>>>",
"444477774444333333333333%%%%%%%%%%%%333333333333777744447777>>>>",
"444477774444333333333333%%%%%%%%%%%%333333333333777744447777>>>>",
"444477774444333333333333%%%%%%%%%%%%333333333333777744447777>>>>",
"444444444444333333333333%%%%%%%%%%%%333333333333444444447777>>>>",
"444444444444333333333%%%555,,,,,,555%%3333333333444444447777>>>>",
"444444444444333333333%%%555,,,,,,555%%3333333333444444447777>>>>",
"444444444444333333%%%555,,,,,,,,,,,,55%%%%333333444444447777>>>>",
"444433333333333333%%%555,,,,,,,,,,,,55%%%%333333333333337777>>>>",
"444433333333333333%%%555,,,,,,,,,,,,55%%%%333333333333337777>>>>",
"444433333333333%%%,,,,,,@@@@@@@@@@@@,,,,,,%%%333333333337777>>>>",
"444433333333333%%%,,,,,,@@@@@@@@@@@@,,,,,,%%%333333333337777>>>>",
"444433333333333%%%,,,,,,@@@@@@@@@@@@,,,,,,%%%333333333337777>>>>",
"444433333333333%%%,,,@@@@@@%%%%%%@@@@@,,,,%%%333333333337777>>>>",
"444433333333333%%%,,,@@@@@@%%%%%%@@@@@,,,,%%%333333333337777>>>>",
"444433333333333%%%,,,@@@@@@%%%%%%@@@@@,,,,%%%333333333337777>>>>",
"444433333333333...@@@@@@%%%%%%%%%%%%@@@@@@...333333333337777>>>>",
"444433333333333...@@@@@@%%%%%%%%%%%%@@@@@@...333333333337777>>>>",
"444433333333333...@@@@@@%%%%%%%%%%%%@@@@@@...333333333337777>>>>",
"444433333333...oooooo666   666666   66ooooooo...333333337777>>>>",
"444433333333...oooooo666   666666   66ooooooo...333333337777>>>>",
"444433333333...oooooo666   666666   66ooooooo...333333337777>>>>",
"444433333333...oooooo:::   666666   ::ooooooo...333333337777>>>>",
"444433333333...oooooo:::   666666   ::ooooooo...333333337777>>>>",
"444433333333...oooooo:::   666666   ::ooooooo...333333337777>>>>",
"444433333333333...ooo$$$::::::::::::$$oooo...333333333337777>>>>",
"444433333333333...ooo$$$::::::::::::$$oooo...333333333337777>>>>",
"444433333333333...ooo$$$::::::::::::$$oooo...333333333337777>>>>",
"444433333333333333###===$$$$$$$$$$$$==####333333333333337777>>>>",
"444433333333333333###===$$$$$$$$$$$$==####333333333333337777>>>>",
"444433333333333333###===$$$$$$$$$$$$==####333333333333337777>>>>",
"444433333333333###---;;;============;;----###333333333337777>>>>",
"444433333333333###---;;;============;;----###333333333337777>>>>",
"444433333333***111111;;;;;;;;;;;;;;;;;1111111***333333337777>>>>",
"444433333333***111111;;;;;;;;;;;;;;;;;1111111***333333337777>>>>",
"444433333333***111111;;;;;;;;;;;;;;;;;1111111***333333337777>>>>",
"444433333333***111111;;;;;;;;;;;;;;;;;1111111***333333337777>>>>",
"444433333333***222111***;;;;;;;;;;;;**1111222***333333337777>>>>",
"444433333333***222111***;;;;;;;;;;;;**1111222***333333337777>>>>",
"444433333333***222111***;;;;;;;;;;;;**1111222***333333337777>>>>",
"444433333333333******&&&&&&&&&&&&&&&&&*******333333333337777>>>>",
"444433333333333******&&&&&&&&&&&&&&&&&*******333333333337777>>>>",
"444433333333333******&&&&&&&&&&&&&&&&&*******333333333337777>>>>",
"444433333333333333XXX&&&&&&++++++&&&&&XXXX333333333333337777>>>>",
"444477774444333333XXX&&&&&&++++++&&&&&XXXX333333777744447777>>>>",
"444477774444333333XXX&&&&&&++++++&&&&&XXXX333333777744447777>>>>",
"444477774444333333OOO<<<<<<XXXXXX<<<<<OOOO333333777744447777>>>>",
"444477774444333333OOO<<<<<<XXXXXX<<<<<OOOO333333777744447777>>>>",
"444444444444333333333OOOOOO333333OOOOO3333333333444444447777>>>>",
"444444444444333333333OOOOOO333333OOOOO3333333333444444447777>>>>",
"444444444444333333333OOOOOO333333OOOOO3333333333444444447777>>>>",
"444444444444333333333OOOOOO333333OOOOO3333333333444444447777>>>>",
"777777777777777777777777777777777777777777777777777777777777>>>>",
"777777777777777777777777777777777777777777777777777777777777>>>>",
"777777777777777777777777777777777777777777777777777777777777>>>>",
"777777777777777777777777777777777777777777777777777777777777>>>>",
">>>>>>>>>>>>>>>>>>>>>>>>>>>>>>>>>>>>>>>>>>>>>>>>>>>>>>>>>>>>>>>>",
">>>>>>>>>>>>>>>>>>>>>>>>>>>>>>>>>>>>>>>>>>>>>>>>>>>>>>>>>>>>>>>>",
">>>>>>>>>>>>>>>>>>>>>>>>>>>>>>>>>>>>>>>>>>>>>>>>>>>>>>>>>>>>>>>>",
">>>>>>>>>>>>>>>>>>>>>>>>>>>>>>>>>>>>>>>>>>>>>>>>>>>>>>>>>>>>>>>>"
};
