/* XPM */
static char *_6820da0e3534059f84344b7a6f27dc0ll6vuXSDLh8w8hmz[] = {
/* columns rows colors chars-per-pixel */
"64 64 13 1 ",
"  c #503197",
". c #285BC4",
"X c #2773CD",
"o c #E17CB7",
"O c #BF53C9",
"+ c #258BD7",
"@ c #24A2DC",
"# c #22B5D5",
"$ c #21C8CD",
"% c #31DBCA",
"& c #6BEBD2",
"* c #EFAAA5",
"= c #A5FCDB",
/* pixels */
"OOOOOOOOOOOOOOOOOOOOOOOOOOOOOOOOOOOOOOOOOOOOOOOOOOOOOOOOOOOO    ",
"OOOOOOOOOOOOOOOOOOOOOOOOOOOOOOOOOOOOOOOOOOOOOOOOOOOOOOOOOOOO    ",
"OOOOOOOOOOOOOOOOOOOOOOOOOOOOOOOOOOOOOOOOOOOOOOOOOOOOOOOOOOOO    ",
"OOOOOOOOOOOOOOOOOOOOOOOOOOOOOOOOOOOOOOOOOOOOOOOOOOOOOOOOOOOO    ",
"OOOO****OOOOoooooooooooooooooooooooooooooooooooo****OOOO****    ",
"OOOO****OOOOoooooooooooooooooooooooooooooooooooo****OOOO****    ",
"OOOO****OOOOoooooooooooooooooooooooooooooooooooo****OOOO****    ",
"OOOO****OOOOoooooooooooooooooooooooooooooooooooo****OOOO****    ",
"OOOOOOOOOOOOooooooooooooooooooooooooooooooooooooOOOOOOOO****    ",
"OOOOOOOOOOOOooooooooooooooooooooooooooooooooooooOOOOOOOO****    ",
"OOOOOOOOOOOOoooooooooooooo#ooooooo@oooooooooooooOOOOOOOO****    ",
"OOOOOOOOOOOOooooooooooooo#oooo@@@oooooooooooooooOOOOOOOO****    ",
"OOOOooooooooooooooooooo##ooo#@@@ooo@@ooooooooooooooooooo****    ",
"OOOOooooooooooooooo$ooo##oo##@@ooo@+++++++oooooooooooooo****    ",
"OOOOoooooooooooooo$oo$##oo#@@ooo@++++ooooooooooooooooooo****    ",
"OOOOoooooooooooooo$oo$#oo@#@##@@o+oooooo++oooooooooooooo****    ",
"OOOOooooooooooooo$$oo$#$@#@#@@@++@oX+++++XXooooooooooooo****    ",
"OOOOooooooooooooo$oo$$#$##@#@@@+@++++XXoXXXXXXoooooooooo****    ",
"OOOOoooooooooooo%$oo$o$###@#@@+@+++++X+++oooooXooooooooo****    ",
"OOOOooooooooo%oo%$oo$o$####+@@@X+++X+X+X.Xoooooooooooooo****    ",
"OOOOooooooooo%o%%$%#$$$##@+@@XX++X+=.XXXXXXXXXoooooooooo****    ",
"OOOOooooooooo%oo%$%$$$$##@+@@@++X+===XXX..o..X.Xoooooooo****    ",
"OOOOooooooooo%oo%o%%$$$##@#@@@+++X===X=XXXXXoo..oooooooo****    ",
"OOOOooooooooo%oo%%$$$$$@##+@@@+++X======....Xoo..ooooooo****    ",
"OOOOoooooooo&%oo%%%%#$$$###@@++========.......ooo.oooooo****    ",
"OOOOoooooooo&&%&%%%%#$#$###@@+++========.......ooo.ooooo****    ",
"OOOOoooooo&o&&%&%%%$#$$$$###@++X========&&.......ooooooo****    ",
"OOOOoooooo&oo&%o&%%%#$$$$##@@+XX=======&&&.......ooooooo****    ",
"OOOOoooooo&oo&&%&%$%$%#$$$##@+X.=======&&.....oo..oooooo****    ",
"OOOOooooooo&oo&&o&%%%%%$$$$##@X.=======&&%....ooo.oooooo****    ",
"OOOOooooooo&&o&&&%&$$%%%%$$$#@oo======&&%%%....oo.oooooo****    ",
"OOOOooooooo=&o=&&&%%&$%%%%%%$$o=======&&%%%..o..oo.ooooo****    ",
"OOOOooooooo==&o=&&&&%&&&&%%%%&&=======&%%%......oo.ooooo****    ",
"OOOOoooooooo==&==&%&&&&&&&&&&=========%%%$.......ooooooo****    ",
"OOOOoooooo=oo==&&=&%%&&&&&&===========%$$$$...o..ooooooo****    ",
"OOOOoooooo=ooo===&&&=================$$$$$....o..ooooooo****    ",
"OOOOooooooo==oo=====&&==============$$$$$...o.oo.ooooooo****    ",
"OOOOooooooo===ooo===================####......oo.ooooooo****    ",
"OOOOooooooooo==o======&&===========######...o.oo.ooooooo****    ",
"OOOOooooooooo====oo===============@###.#.......o.ooooooo****    ",
"OOOOoooooooooo====================@@@......o...ooooooooo****    ",
"OOOOoooooooo=ooo================+.@@@......oo..ooooooooo****    ",
"OOOOooooooooo=oooo=o===========++.......o..o..oooooooooo****    ",
"OOOOoooooooooo=====oo=========..+.........oooooooooooooo****    ",
"OOOOooooooooooo=o===========oo.o......oo..oo.ooooooooooo****    ",
"OOOOooooooooooooooo=======.o.oo....o..oo..oooooooooooooo****    ",
"OOOOoooooooooooooooooo...oooo....oo..oo...oooooooooooooo****    ",
"OOOOooooooooooooooooooooooo....ooo...oo.oooooooooooooooo****    ",
"OOOO****OOOOooooooooooo....o..oo..o.oo.ooooooooo****OOOO****    ",
"OOOO****OOOOooooooooooooooooooo...ooo.oooooooooo****OOOO****    ",
"OOOO****OOOOoooooooooooooooooo.ooooooooooooooooo****OOOO****    ",
"OOOO****OOOOoooooooooooooooooooooooooooooooooooo****OOOO****    ",
"OOOOOOOOOOOOooooooooooooooooooooooooooooooooooooOOOOOOOO****    ",
"OOOOOOOOOOOOooooooooooooooooooooooooooooooooooooOOOOOOOO****    ",
"OOOOOOOOOOOOooooooooooooooooooooooooooooooooooooOOOOOOOO****    ",
"OOOOOOOOOOOOooooooooooooooooooooooooooooooooooooOOOOOOOO****    ",
"************************************************************    ",
"************************************************************    ",
"************************************************************    ",
"************************************************************    ",
"                                                                ",
"                                                                ",
"                                                                ",
"                                                                "
};
