/* XPM */
static char *_2512c01d4914e83d551b0fba07c2b47fOtg2ChSheBAWXSC[] = {
/* columns rows colors chars-per-pixel */
"64 64 13 1 ",
"  c #503197",
". c #285BC4",
"X c #2773CD",
"o c #E17CB7",
"O c #BF53C9",
"+ c #258BD7",
"@ c #24A2DC",
"# c #22B5D5",
"$ c #21C8CD",
"% c #31DBCA",
"& c #6BEBD2",
"* c #EFAAA5",
"= c #A5FCDB",
/* pixels */
"OOOOOOOOOOOOOOOOOOOOOOOOOOOOOOOOOOOOOOOOOOOOOOOOOOOOOOOOOOOO    ",
"OOOOOOOOOOOOOOOOOOOOOOOOOOOOOOOOOOOOOOOOOOOOOOOOOOOOOOOOOOOO    ",
"OOOOOOOOOOOOOOOOOOOOOOOOOOOOOOOOOOOOOOOOOOOOOOOOOOOOOOOOOOOO    ",
"OOOOOOOOOOOOOOOOOOOOOOOOOOOOOOOOOOOOOOOOOOOOOOOOOOOOOOOOOOOO    ",
"OOOO****OOOOoooooooooooooooooooooooooooooooooooo****OOOO****    ",
"OOOO****OOOOoooooooooooooooooooooooooooooooooooo****OOOO****    ",
"OOOO****OOOOoooooooooooooooooooooooooooooooooooo****OOOO****    ",
"OOOO****OOOOoooooooooooooooooooooooooooooooooooo****OOOO****    ",
"OOOOOOOOOOOOooooooooooooooooooooooooooooooooooooOOOOOOOO****    ",
"OOOOOOOOOOOOoooooooooooooooooo&&&oooooooooooooooOOOOOOOO****    ",
"OOOOOOOOOOOOooooooooooo==o==ooo&&&&ooo%%ooooooooOOOOOOOO****    ",
"OOOOOOOOOOOOooooooooooo=======oo&&&&oo%%%oooooooOOOOOOOO****    ",
"OOOOooooooooooooooooooooo========&=&&oo%%%oooooooooooooo****    ",
"OOOOooooooooooooooo==================&%%%%oooooooooooooo****    ",
"OOOOoooooooooooo======================&&%%%o$$oooooooooo****    ",
"OOOOoooooooooooo======================&&&%%oo$oooooooooo****    ",
"OOOOooooooooooooo..====================&&&%oo$$ooooooooo****    ",
"OOOOoooooooooooo.$..#...================&&%%$$$$oooooooo****    ",
"OOOOoooooooooooo.$.........+============&&&%%$$$oooooooo****    ",
"OOOOooooooooooo.%......@#..+.===========&&&%%%$$oooooooo****    ",
"OOOOooooooooo...%...#..##.++X@==========&&&&%%%$o#oooooo****    ",
"OOOOoooooooo....$......@#+#.X@.==========&&&%%%$o##ooooo****    ",
"OOOOooooooo.........$..@.++XX..==========&&&%%$$o##ooooo****    ",
"OOOOoooooo..........#.@$.+..@..==========&&&%%%$##oooooo****    ",
"OOOOooooo....%.......$.@..#.....=========&&%%%%$###ooooo****    ",
"OOOOooooo..o.&....%.##.@.X......=========&&%%%$$$##ooooo****    ",
"OOOOoooooooo.&&...%..#.@$X..@..X========&&&%%%$$$##ooooo****    ",
"OOOOooooooo..%%...$%.##.+..#X.X.=========&&%%%$$$#oooooo****    ",
"OOOOooooooo........$.##.+.$+#@X.========&&%%%%$$#oo@@ooo****    ",
"OOOOoooooo.........$$.#.XX.$#@oo=======%&&%%%$$$#@@@@ooo****    ",
"OOOOoooooo..&...%&..$$.X@.%%$$o========%&%%%$$$$#@@@oooo****    ",
"OOOOooooo...&.....&..$$&&+X#+&&========&&%%$$$$##@@@oooo****    ",
"OOOOooooo..o.=....%&..$X#@&$$===&=&%==&$%%%$$$###@@@oooo****    ",
"OOOOooooo..o.&&.....%..X+@@==%=%%=%==&$%%$$$$$###@@ooooo****    ",
"OOOOooooooo..........==%==##@=#=$$==&%%%$$$$#####@oooooo****    ",
"OOOOooooooo.......=....%%+$#$$@%#&==%%#$$$######@ooooooo****    ",
"OOOOooooooo........===&XX+=%%$%%%==$%$$$$$#####@++++oooo****    ",
"OOOOooooooo...=.......&&==&+&&$==$$#$$#######@@@+++ooooo****    ",
"OOOOoooooooo..==........XX++==@####@########@@@++++ooooo****    ",
"OOOOoooooooo...==.......=====X@==##@#####@@@@@@+++oooooo****    ",
"OOOOooooooo..oo.......==XX=X++==@@@@@@@@@@@@@@@++ooooooo****    ",
"OOOOoooooooo.o...........XXX===++@@@@@@@@@@@@++ooooooooo****    ",
"OOOOooooooooooo..=........==X+++++++@++@@++++ooooooooooo****    ",
"OOOOooooooooooo...=.....=..XXXX+++++++++++++XXXXoooooooo****    ",
"OOOOooooooooooo....===......XXXXXX+++++++++XXXXooooooooo****    ",
"OOOOoooooooooooo...o........XXXXXXXX+++XX+XXXooooooooooo****    ",
"OOOOooooooooooooo..o..........XXXXXXXXXXXXXXoooooooooooo****    ",
"OOOOoooooooooooooo.o............XXXXX..ooooooooooooooooo****    ",
"OOOO****OOOOooooooooo....o................oooooo****OOOO****    ",
"OOOO****OOOOooooooooooo...o.....oo....o..ooooooo****OOOO****    ",
"OOOO****OOOOoooooooooooo..ooo.....oooooooooooooo****OOOO****    ",
"OOOO****OOOOoooooooooooooooooooo..oooooooooooooo****OOOO****    ",
"OOOOOOOOOOOOooooooooooooooooooooooooooooooooooooOOOOOOOO****    ",
"OOOOOOOOOOOOooooooooooooooooooooooooooooooooooooOOOOOOOO****    ",
"OOOOOOOOOOOOooooooooooooooooooooooooooooooooooooOOOOOOOO****    ",
"OOOOOOOOOOOOooooooooooooooooooooooooooooooooooooOOOOOOOO****    ",
"************************************************************    ",
"************************************************************    ",
"************************************************************    ",
"************************************************************    ",
"                                                                ",
"                                                                ",
"                                                                ",
"                                                                "
};
