/* XPM */
static char *cc972d219ef24d70dd1dbdc73ae8caf6zb887TyyL5s8UdWY[] = {
/* columns rows colors chars-per-pixel */
"64 64 13 1 ",
"  c #503197",
". c #285BC4",
"X c #2773CD",
"o c #E17CB7",
"O c #BF53C9",
"+ c #258BD7",
"@ c #24A2DC",
"# c #22B5D5",
"$ c #21C8CD",
"% c #31DBCA",
"& c #6BEBD2",
"* c #EFAAA5",
"= c #A6FCDB",
/* pixels */
"OOOOOOOOOOOOOOOOOOOOOOOOOOOOOOOOOOOOOOOOOOOOOOOOOOOOOOOOOOOO    ",
"OOOOOOOOOOOOOOOOOOOOOOOOOOOOOOOOOOOOOOOOOOOOOOOOOOOOOOOOOOOO    ",
"OOOOOOOOOOOOOOOOOOOOOOOOOOOOOOOOOOOOOOOOOOOOOOOOOOOOOOOOOOOO    ",
"OOOOOOOOOOOOOOOOOOOOOOOOOOOOOOOOOOOOOOOOOOOOOOOOOOOOOOOOOOOO    ",
"OOOO****OOOOoooooooooooooooooooooooooooooooooooo****OOOO****    ",
"OOOO****OOOOooooooooooooo&&&&ooo%%%ooooooooooooo****OOOO****    ",
"OOOO****OOOOooooooooooo&&&&&&&&&%%%%%%oooooooooo****OOOO****    ",
"OOOO****OOOOooooooooo====&&&&&&&&&%%%%%%o$oooooo****OOOO****    ",
"OOOOOOOOOOOOooooo============&&&&&&%%%%%%$$oooooOOOOOOOO****    ",
"OOOOOOOOOOOOoooo==========&====&&&&&&%%%%%$$ooooOOOOOOOO****    ",
"OOOOOOOOOOOOoo=========&==&=&&==o%&%&$%%%%$$$$ooOOOOOOOO****    ",
"OOOOOOOOOOOOooo==========ooo==&&&=%%%o$%%%%$$$ooOOOOOOOO****    ",
"OOOOooooooooo===============ooo=&=o%&%&o%$%$$$$ooooooooo****    ",
"OOOOooooooo==========oo=======o==&&o&%%&$%%%$$$o#ooooooo****    ",
"OOOOooooooo======ooo==oo@@=o===oo&&&o&&%o%$%$$$$##oooooo****    ",
"OOOOoooooo======oo=======oo+o===oo&&&X&%%o$$%$$$##oooooo****    ",
"OOOOooooo==================o.o==oo&&&o&%%o%$%$$$###ooooo****    ",
"OOOOoooo=========oo#oo@o====oo.===o&==o&%oo$%o$#$###oooo****    ",
"OOOOooooo======.ooo#o.o.o..==oo====&&.o%%o%%$%##$###oooo****    ",
"OOOOoooo=====..oo.........@o===o===o==o%&..%$o$#$###oooo****    ",
"OOOOoooo====ooo$..#...#..+.XX===.==o==oo&&o%$$o#$###oooo****    ",
"OOOOoooo====o..$.oooo.#.o+.XX.==o======%&oo$$o##$####@oo****    ",
"OOOOooo====....$ooo$..@.++XX..===.====.%&oo$$o$#$###@@oo****    ",
"OOOOoo.====...ooo.....@.+....+======&==&&oo$$o$#$###@@oo****    ",
"OOOOoo====o..o......oo@....@o+.=====&&&&&&o%$.$#$#@#@@@o****    ",
"OOOOoo==.o..o..$..o...@.X#.o.o.o===&&&%=%o$%%o$#o@@#@@@o****    ",
"OOOOo.==....o..ooo..#.@.X#o.ooooo==&&&%&.%$%oo##o#+@@@@o****    ",
"OOOOo.=.o..o%%oo.o..##.$.o.oooooo==&=%%%&%%oo$#oo@#@@@oo****    ",
"OOOOo........%o...%o##.+oooo@X.===o&=%%o&%%o###o#@#+@@@o****    ",
"OOOOo........oo......#....o#@oo.&=&o=%%$&%%o##oo@@#@@@oo****    ",
"OOOOo........o......$..@o.o$ooo.o=&===$&$oo#$oo#@#@@@@+o****    ",
"OOOOo.......o...o...$$.X.oXo&ooo$o%===$$$%$$$oo#@o+@@@+o****    ",
"OOOOo.......o..o...o.$.&+.o+==o%o$$=&$$o%$$$oo@@#o@+@++o****    ",
"OOOOo.......&&.o...%..XX+.o+@=$$.$==&##%$$$oo#@@o++@@++o****    ",
"OOOOo......o.&&o..o..%%X+=oXooo.##&%#####oo.@@@oo+@@+++o****    ",
"OOOOoo.....o..oo..o..o%%+$@##+o@%%=%.#oo@@@##ooo++@++++o****    ",
"OOOOo.........o.&o==.o..o+=%#$$$=$@@@@$#####.oo++@X+++oo****    ",
"OOOOoo........o..o..=&&&&&.@@###$$@@@@####ooo@@+@X+++ooo****    ",
"OOOOoo........oo.oo....Xo..==Xo+++.o@#oooooo+++oX++++ooo****    ",
"OOOOooo.......o=..o..o.XX===XX==++@#@@@+o++++@@o++++Xooo****    ",
"OOOOooo.........=oo..==...X+o==@@+++@@@@@@++ooXXX++XXooo****    ",
"OOOOoooo......o...o=.o...o.X=oX+++oo@ooo@oooo+XX++XXoooo****    ",
"OOOOoooo..........o..oo..ooXXXo+++XXo.oooX++XXX+XXXXoooo****    ",
"OOOOooooo.........oo..oo.ooXX.oo+++++XX+XX+X+++XXXXooooo****    ",
"OOOOooooo.........o===oo=..ooX...oo+XXXXX++++XXXXXXooooo****    ",
"OOOOoooooo.............oo...oXXX..ooooooo.oXXXXXXooooooo****    ",
"OOOOooooooo.........o...oo..ooo....XXXX.XX..XXXXXooooooo****    ",
"OOOOoooooooo.............oo....oo.........XXX...oooooooo****    ",
"OOOO****OOOOo.............oo....oooXXXXXXX.....o****OOOO****    ",
"OOOO****OOOOoo...............o................oo****OOOO****    ",
"OOOO****OOOOoooo.............................ooo****OOOO****    ",
"OOOO****OOOOooooo.........................oooooo****OOOO****    ",
"OOOOOOOOOOOOooooooo.....................ooooooooOOOOOOOO****    ",
"OOOOOOOOOOOOooooooooo.o................oooooooooOOOOOOOO****    ",
"OOOOOOOOOOOOooooooooooooo......o.o..ooooooooooooOOOOOOOO****    ",
"OOOOOOOOOOOOooooooooooooooooooooooooooooooooooooOOOOOOOO****    ",
"************************************************************    ",
"************************************************************    ",
"************************************************************    ",
"************************************************************    ",
"                                                                ",
"                                                                ",
"                                                                ",
"                                                                "
};
